<?xml version="1.0" encoding="utf-8"?>
<svg version="1.1" xmlns="http://www.w3.org/2000/svg" xmlns:xlink="http://www.w3.org/1999/xlink" x="0px" y="0px" width="283.46" height="283.46" viewBox="0 0 283.46 283.46" xml:space="preserve">
<style type="text/css">.st0{fill:#FFFFFF;}.st1{fill:url(#SVGID_1_);}.st2{fill:url(#SVGID_2_);}.st3{fill:url(#SVGID_3_);}</style>
<linearGradient id="SVGID_1_" gradientUnits="userSpaceOnUse" x1="141.6675" y1="45.843" x2="141.8595" y2="95.7565"><stop offset="0.3193" style="stop-color:#27B2A5"/><stop offset="0.3736" style="stop-color:#26A99C"/><stop offset="0.8007" style="stop-color:#1B635D"/><stop offset="1" style="stop-color:#174844"/></linearGradient>
<polygon class="st1" points="171.78,85.51 232.28,85.51 216.81,116.67 239.52,116.9 266.43,62.69 266.43,62.69 266.43,62.69 17.03,62.69 19.49,67.63 43.94,116.9 66.66,116.67 51.19,85.51 108.42,85.51"/>
<linearGradient id="SVGID_2_" gradientUnits="userSpaceOnUse" x1="137.7978" y1="237.7577" x2="139.9806" y2="105.6981"><stop offset="0.3193" style="stop-color:#27B2A5"/><stop offset="0.5936" style="stop-color:#218A80"/><stop offset="1" style="stop-color:#174844"/></linearGradient>
<path class="st2" d="M140.1,188.94L95.17,98.45H72.34l60.66,122.21c0,0,14.06,0.27,14.19,0l60.66-122.21h-22.82L140.1,188.94z"/>
<linearGradient id="SVGID_3_" gradientUnits="userSpaceOnUse" x1="139.8974" y1="138.9483" x2="140.102" y2="85.1285"><stop offset="0.3193" style="stop-color:#27B2A5"/><stop offset="0.5936" style="stop-color:#218A80"/><stop offset="1" style="stop-color:#174844"/></linearGradient>
<polygon class="st3" points="108.42,85.51 171.78,85.51 144.51,140.46 135.7,140.46"/>
</svg>
